<svg xmlns="http://www.w3.org/2000/svg" xmlns:xlink="http://www.w3.org/1999/xlink" aria-hidden="true" focusable="false" width="1em" height="1em" style="-ms-transform: rotate(360deg); -webkit-transform: rotate(360deg); transform: rotate(360deg);" preserveAspectRatio="xMidYMid meet" viewBox="0 0 24 24"><path d="M6.737 16.747a8.564 8.564 0 0 0-1.17 4.324a1 1 0 1 1-2 0c0-2.123.637-4.163 1.785-5.879a7.002 7.002 0 0 1 .062-7.738c1.442-2.137 6.166-4.021 14.17-5.653c-.268 6.851-1.122 11.345-2.563 13.482a7 7 0 0 1-10.284 1.464zm1.206-1.6a5 5 0 0 0 7.42-.984c1.004-1.488 1.737-4.815 2.084-9.85C11.504 5.7 7.984 7.222 7.072 8.573a4.998 4.998 0 0 0-.357 4.972c.43-.423.897-.811 1.4-1.16l.508-.352a1 1 0 0 1 1.139 1.644l-.507.352a8.565 8.565 0 0 0-1.312 1.119z" fill="black"/></svg>