<svg xmlns="http://www.w3.org/2000/svg" xmlns:xlink="http://www.w3.org/1999/xlink" aria-hidden="true" focusable="false" width="1em" height="1em" style="-ms-transform: rotate(360deg); -webkit-transform: rotate(360deg); transform: rotate(360deg);" preserveAspectRatio="xMidYMid meet" viewBox="0 0 24 24"><path d="M8 20a2 2 0 01-2 2H4a2 2 0 01-2-2v-2a2 2 0 012-2V8a2 2 0 01-2-2V4a2 2 0 012-2h2a2 2 0 012 2h8a2 2 0 012-2h2a2 2 0 012 2v2a2 2 0 01-2 2v8a2 2 0 012 2v2a2 2 0 01-2 2h-2a2 2 0 01-2-2H8zM8 6a2 2 0 01-2 2v8a2 2 0 012 2h8a2 2 0 012-2V8a2 2 0 01-2-2H8zM4 4v2h2V4H4zm14 0v2h2V4h-2zm0 14v2h2v-2h-2zM4 18v2h2v-2H4z" fill="black" fill-rule="nonzero"/></svg>