<svg xmlns="http://www.w3.org/2000/svg" xmlns:xlink="http://www.w3.org/1999/xlink" aria-hidden="true" focusable="false" width="1em" height="1em" style="-ms-transform: rotate(360deg); -webkit-transform: rotate(360deg); transform: rotate(360deg);" preserveAspectRatio="xMidYMid meet" viewBox="0 0 24 24"><path d="M13 20h2a1 1 0 0 0 1-1v-2.07l1.065-.563A5.498 5.498 0 0 0 20 11.5v-2A5.5 5.5 0 0 0 14.5 4h-5A5.5 5.5 0 0 0 4 9.5v2a5.498 5.498 0 0 0 2.935 4.867L8 16.93V19a1 1 0 0 0 1 1h2v-2a1 1 0 0 1 2 0v2zm5-1a3 3 0 0 1-3 3H9a3 3 0 0 1-3-3v-.865A7.499 7.499 0 0 1 2 11.5v-2A7.5 7.5 0 0 1 9.5 2h5A7.5 7.5 0 0 1 22 9.5v2a7.499 7.499 0 0 1-4 6.635V19zM8 13a2 2 0 1 1 0-4a2 2 0 0 1 0 4zm8 0a2 2 0 1 1 0-4a2 2 0 0 1 0 4z" fill="black"/></svg>