<svg xmlns="http://www.w3.org/2000/svg" xmlns:xlink="http://www.w3.org/1999/xlink" aria-hidden="true" focusable="false" width="1em" height="1em" style="-ms-transform: rotate(360deg); -webkit-transform: rotate(360deg); transform: rotate(360deg);" preserveAspectRatio="xMidYMid meet" viewBox="0 0 24 24"><path d="M4.776 9.106L5.648 15h12.736l.867-5.98l-3.493 3.02l-3.755-4.827l-3.909 4.811l-3.318-2.918zm10.038-1.537l-.078.067l.141.014l1.167 1.499l1.437-1.242l.14.014l-.062-.082l2.413-2.086a1 1 0 0 1 1.643.9L20.115 17H3.922L2.399 6.7a1 1 0 0 1 1.65-.898L6.35 7.827l-.05.06l.109-.008l1.444 1.27l1.212-1.493l.109-.009l-.06-.052l2.131-2.619a1 1 0 0 1 1.565.017l2.005 2.576zM4 18h16v1a1 1 0 0 1-1 1H5a1 1 0 0 1-1-1v-1z" fill="black"/></svg>