<svg xmlns="http://www.w3.org/2000/svg" xmlns:xlink="http://www.w3.org/1999/xlink" aria-hidden="true" focusable="false" width="1em" height="1em" style="-ms-transform: rotate(360deg); -webkit-transform: rotate(360deg); transform: rotate(360deg);" preserveAspectRatio="xMidYMid meet" viewBox="0 0 24 24"><path d="M12 2a8 8 0 0 1 8 8v12l-4.919-1l-3.08 1l-2.992-1L4 22V10a8 8 0 0 1 8-8zm6 8a6 6 0 0 0-12 0v9.561l3.138-.626l2.871.96l2.955-.96l3.036.618V10zm-8.5 2a1.5 1.5 0 1 1 0-3a1.5 1.5 0 0 1 0 3zm5 0a1.5 1.5 0 1 1 0-3a1.5 1.5 0 0 1 0 3z" fill="black"/></svg>