<svg xmlns="http://www.w3.org/2000/svg" xmlns:xlink="http://www.w3.org/1999/xlink" aria-hidden="true" focusable="false" width="1em" height="1em" style="-ms-transform: rotate(360deg); -webkit-transform: rotate(360deg); transform: rotate(360deg);" preserveAspectRatio="xMidYMid meet" viewBox="0 0 24 24"><path d="M10.487 4.04A3 3 0 0 1 13 7v2H7V7c0-1.039.528-1.955 1.33-2.493A2 2 0 0 0 5 6v6h16a1 1 0 0 1 0 2v1a6.002 6.002 0 0 1-4 5.659V21a1 1 0 0 1-2 0H9a1 1 0 0 1-2 0v-.341A6.002 6.002 0 0 1 3 15v-1a1 1 0 0 1 0-2V6a4 4 0 0 1 7.487-1.96zM19 14H5v1a4 4 0 0 0 4 4h6a4 4 0 0 0 4-4v-1zm-9-8a1 1 0 0 0-1 1h2a1 1 0 0 0-1-1z" fill="black"/></svg>