<svg xmlns="http://www.w3.org/2000/svg" xmlns:xlink="http://www.w3.org/1999/xlink" aria-hidden="true" focusable="false" width="1em" height="1em" style="-ms-transform: rotate(360deg); -webkit-transform: rotate(360deg); transform: rotate(360deg);" preserveAspectRatio="xMidYMid meet" viewBox="0 0 24 24"><path d="M6 13.5a2 2 0 0 0-2 2v2a2 2 0 0 0 2 2h6a2 2 0 0 0 2-2v-2a2 2 0 0 0-2-2H6zm9.698.473l1.888-1.887A2 2 0 0 1 19 11.5h.586a2 2 0 0 1 2 2v6a2 2 0 0 1-2 2H19a2 2 0 0 1-1.414-.586l-1.888-1.887A4.001 4.001 0 0 1 12 21.5H6a4 4 0 0 1-4-4v-2a4 4 0 0 1 4-4h6a4.001 4.001 0 0 1 3.698 2.473zM19 19.5h.586v-6H19l-3 3l3 3zM11.259 4.879a4.5 4.5 0 1 1-.386 5.785a5 5 0 1 1 .386-5.785zM7 18.5a1 1 0 1 1 0-2a1 1 0 0 1 0 2zm0-8a3 3 0 1 0 0-6a3 3 0 0 0 0 6zm7.5 0a2.5 2.5 0 1 0 0-5a2.5 2.5 0 0 0 0 5z" fill="black"/></svg>