<svg xmlns="http://www.w3.org/2000/svg" xmlns:xlink="http://www.w3.org/1999/xlink" aria-hidden="true" focusable="false" width="1em" height="1em" style="-ms-transform: rotate(360deg); -webkit-transform: rotate(360deg); transform: rotate(360deg);" preserveAspectRatio="xMidYMid meet" viewBox="0 0 24 24"><path d="M9 11a1 1 0 0 0-1 1v4a4 4 0 1 0 8 0v-4a1 1 0 0 0-1-1H9zm8.236-1h1.647V7a1 1 0 1 1 2 0v3a2 2 0 0 1-2 2H18v1h3a1 1 0 0 1 0 2h-3v1h.883a2 2 0 0 1 2 2v3a1 1 0 0 1-2 0v-3h-1.224A6.002 6.002 0 0 1 6.34 18H5v3a1 1 0 0 1-2 0v-3a2 2 0 0 1 2-2h1v-1H3a1 1 0 0 1 0-2h3v-1H5a2 2 0 0 1-2-2V7a1 1 0 1 1 2 0v3h1.764A3 3 0 0 1 8 9.17V7a2 2 0 0 1 2-2h.737c-.343-.598-.988-1-1.726-1H7a1 1 0 1 1 0-2h2.01A3.98 3.98 0 0 1 12 3.348A3.98 3.98 0 0 1 14.99 2H17a1 1 0 0 1 0 2h-2.01c-.74 0-1.384.402-1.727 1H14a2 2 0 0 1 2 2v2.17a3 3 0 0 1 1.236.83zM10 9h4V7h-4v2z" fill="black"/></svg>