<svg xmlns="http://www.w3.org/2000/svg" xmlns:xlink="http://www.w3.org/1999/xlink" aria-hidden="true" focusable="false" width="1em" height="1em" style="-ms-transform: rotate(360deg); -webkit-transform: rotate(360deg); transform: rotate(360deg);" preserveAspectRatio="xMidYMid meet" viewBox="0 0 32 32"><path d="M28.59 10.903l-5.83 1.612a10.241 10.241 0 00-2.31-3.628l3.082-5.44a1 1 0 10-1.74-.988l-2.924 5.16a8.104 8.104 0 00-1.9-.895 3.577 3.577 0 00-3.058-2.562l-.003-.012c-.06-.24-.093-.46-.098-.65a1.65 1.65 0 01.045-.478c.037-.13.08-.235.125-.317.146-.26.34-.43.577-.51.023.282.142.483.352.602a.838.838 0 00.545.086c.21-.03.376-.152.496-.363a.757.757 0 00.065-.607.837.837 0 00-.414-.507.957.957 0 00-.48-.13 1.3 1.3 0 00-.912.388c-.13.128-.24.27-.33.425a2.12 2.12 0 00-.25.782 3.938 3.938 0 00-.008.84c.017.16.06.3.094.45-.375-.022-.758 0-1.14.107-.482.132-.913.36-1.28.652-.052-.172-.098-.344-.18-.518a3.875 3.875 0 00-.438-.716 2.074 2.074 0 00-.618-.543 1.983 1.983 0 00-.5-.194 1.285 1.285 0 00-.979.138.947.947 0 00-.348.357.845.845 0 00-.094.647.76.76 0 00.367.49c.21.12.415.138.61.056a.836.836 0 00.426-.355c.118-.21.117-.443-.008-.695.244-.055.497-.008.757.14.08.046.17.116.27.21.096.09.192.22.285.387.094.166.18.368.25.608.014.044.024.098.036.146a3.562 3.562 0 00-1.097 3.356 7.912 7.912 0 00-1.457 2.035l-5.16-2.925a1.004 1.004 0 00-1.364.377 1.007 1.007 0 00.378 1.367l5.44 3.08a10.313 10.313 0 00-.116 4.298L1.926 18.28a1 1 0 00-.698 1.232.998.998 0 001.23.694l5.88-1.627c.503 1.056 1.363 2.28 2.37 3.442l-3.193 5.64a.998.998 0 001.136 1.456c.25-.068.47-.23.605-.47l2.895-5.11c2.7 2.594 5.684 4.123 5.778 1.053 1.598 2.56 3.45-.337 4.502-3.975l5.203 2.947c.24.138.514.162.762.094a1 1 0 00.226-1.833l-5.7-3.23c.29-1.504.422-2.982.32-4.137l5.885-1.627a1 1 0 00-.534-1.927z" fill="black"/></svg>