<svg xmlns="http://www.w3.org/2000/svg" xmlns:xlink="http://www.w3.org/1999/xlink" aria-hidden="true" focusable="false" width="1em" height="1em" style="-ms-transform: rotate(360deg); -webkit-transform: rotate(360deg); transform: rotate(360deg);" preserveAspectRatio="xMidYMid meet" viewBox="0 0 32 32"><path d="M26.154 13.988a8.219 8.219 0 00-3.02-1.032 8.216 8.216 0 00.617-3.13c0-4.4-3.437-8.002-7.77-8.265a6.318 6.318 0 015.802 6.293c0 3.373-2.653 6.123-5.983 6.294v1.292a1.908 1.908 0 011.486 2.542l1.18.683c1.827-2.758 5.51-3.658 8.41-1.98a6.312 6.312 0 012.507 8.253c2.003-3.9.61-8.734-3.23-10.95zm-22.032 2.6c2.92-1.687 6.628-.765 8.442 2.033l1.14-.656c-.07-.2-.108-.417-.108-.642 0-.91.638-1.67 1.49-1.86v-1.318a6.309 6.309 0 01-5.92-6.292 6.31 6.31 0 015.756-6.286c-4.312.285-7.73 3.875-7.73 8.258a8.24 8.24 0 00.582 3.05c-1.004.147-2 .48-2.93 1.02-3.813 2.2-5.21 6.985-3.265 10.87a6.31 6.31 0 012.542-8.177zm7.028-5.136a5.457 5.457 0 00.759.758c.1.085.21.16.317.237a5.9 5.9 0 013.244-.97c1.202 0 2.313.358 3.243.97.107-.077.217-.152.318-.236a5.672 5.672 0 001.083-1.188 7.832 7.832 0 00-4.643-1.53h-.184c-1.666.04-3.2.606-4.462 1.53.105.148.213.292.326.43zm-1.88 5.335a5.509 5.509 0 00-1.038-.277 5.314 5.314 0 00-.535-.065 7.835 7.835 0 00.998 4.786 7.836 7.836 0 003.645 3.26 5.537 5.537 0 00.538-1.927 5.894 5.894 0 01-2.46-2.325 5.89 5.89 0 01-.784-3.294c-.12-.055-.24-.11-.364-.157zm8.852 5.87c.014.132.024.263.046.394.03.178.067.353.113.525a6.037 6.037 0 00.378 1.008 7.838 7.838 0 003.644-3.257 7.838 7.838 0 001-4.788 5.762 5.762 0 00-1.572.34c-.124.047-.24.105-.362.16a5.885 5.885 0 01-.784 3.292 5.887 5.887 0 01-2.462 2.325zm2.447 4.954a6.307 6.307 0 01-2.46-8.328l-1.193-.69c-.35.39-.854.635-1.417.635a1.91 1.91 0 01-1.436-.653l-1.146.666c1.475 2.96.414 6.598-2.488 8.272a6.312 6.312 0 01-8.386-1.935c2.38 3.667 7.25 4.87 11.08 2.658a8.228 8.228 0 002.338-2.018 8.282 8.282 0 0013.502-.56 6.31 6.31 0 01-8.395 1.953z" fill="black"/></svg>