<svg xmlns="http://www.w3.org/2000/svg" xmlns:xlink="http://www.w3.org/1999/xlink" aria-hidden="true" focusable="false" width="1em" height="1em" style="-ms-transform: rotate(360deg); -webkit-transform: rotate(360deg); transform: rotate(360deg);" preserveAspectRatio="xMidYMid meet" viewBox="0 0 32 32"><path d="M18.386 16.01l.01-.007-.58-.912c1.653-2.225 1.875-5.318.3-7.8a6.897 6.897 0 00-11.638 7.4 6.9 6.9 0 006.943 3.102l.424.67.206.044.78-.447-.306 1.376 2.483.552-.296 1.325 1.903.424-.68 3.06 1.406.313-.424 1.906 4.134.918.758-3.392-5.426-8.533zm-7.39-7.066a1.471 1.471 0 01-1.578-2.482 1.47 1.47 0 011.578 2.483z" fill="black"/></svg>