<svg xmlns="http://www.w3.org/2000/svg" xmlns:xlink="http://www.w3.org/1999/xlink" aria-hidden="true" focusable="false" width="1em" height="1em" style="-ms-transform: rotate(360deg); -webkit-transform: rotate(360deg); transform: rotate(360deg);" preserveAspectRatio="xMidYMid meet" viewBox="0 0 32 32"><path d="M20.833 2.625H10.167l-7.542 7.542v10.666l7.542 7.542h10.666l7.542-7.542V10.167l-7.542-7.542zm2.927 14.52c-.46.432-.496-.02-1.15.385-.656.404-1.068.844-1.068.844l-.578.564s-1.2 1.422-1.59 1.717c-.392.29-.572.166-.572.166-.133.23-.64.657-1.193 1.026-.55.37-.99 1.354-.99 1.354l-.21 1.465s-1.596.02-3.095-.293c-1.5-.314-2.7-.982-2.7-.982l.656-1.45s-.58-2.226-.635-3.927c-.056-1.703.572-2.958.48-3.37-.09-.412-.437-1.11-.522-1.57a67.574 67.574 0 01-.327-2.237c-.02-.202-.28-2.232.614-2.204.89.027.648 1.388.725 2.246.077.857 1.13 3.25 1.297 3.123.167-.124-.056-2.397.006-2.837.063-.44.182-2.315.293-2.747.113-.433.106-1.778.936-1.66.83.118.606 1.332.488 1.813-.118.48.02 1.596.07 2.3.048.705.112 2.357.112 2.357l.404-.042s.913-5 .976-5.44c.062-.438.182-1.617.858-1.47 1.117.24.516 1.966.516 1.966l-.486 5.51s.166.224.492.02c.33-.2 1.312-3.25 1.46-3.926.145-.676.083-2.678 1.144-2.428 1.06.252.453 2.755.124 4.353-.327 1.596-1.03 3.39-1.03 3.39l-.433 1.63.377.852.412-.092.897-.717.614-.46c.614-.46 1.765-.496 2.045-.356.278.137 1.046.696.585 1.128z" fill="black"/></svg>